<svg width="500" height="727" viewBox="0 0 827 727" fill="none" xmlns="http://www.w3.org/2000/svg">
<g opacity="0.5">
<g opacity="0.1">
<path d="M545.216 209.638L450.796 95.5394L424.927 53.2332L445.622 0.670898L320.16 105.795L414.58 218.612L440.449 260.918L419.754 313.48L545.216 209.638Z" fill="#325239"/>
<path d="M362.845 158.356L215.394 160.92L166.244 154.51L139.082 105.794L142.962 268.609L290.413 266.045L339.563 272.455L366.725 321.171L362.845 158.356Z" fill="#B8D57E"/>
<path d="M208.924 268.594L119.677 385.256L84.7545 421.153L27.8438 412.178L158.48 509.611L247.726 392.948L282.649 358.334L339.56 367.308L208.924 268.594Z" fill="#325239"/>
<path d="M199.872 457.035L234.794 599.338L241.261 648.054L198.578 686.514L356.376 645.49L320.161 503.187L313.693 454.471L356.376 417.293L199.872 457.035Z" fill="#B8D57E"/>
<path d="M342.141 581.412L475.364 642.949L518.047 669.871L521.927 726.279L587.892 577.566L453.375 516.03L410.693 490.39L406.812 433.981L342.141 581.412Z" fill="#B5D27D"/>
<path d="M528.398 548.091L660.328 482.709L706.891 466.043L753.455 498.093L678.436 354.508L546.506 419.891L498.649 436.557L452.086 404.507L528.398 548.091Z" fill="#325239"/>
<path d="M618.936 382.724L648.685 239.139L665.499 191.705L719.823 176.321L559.438 144.271L529.689 287.855L512.875 335.29L458.551 350.674L618.936 382.724Z" fill="#B8D57E"/>
</g>
</g>
<g filter="url(#filter0_d_46_8706)">
<path d="M674.108 587.124C673.156 588.077 671.865 588.612 670.518 588.612H644.243C642.896 588.612 641.604 588.077 640.652 587.124H674.108Z" fill="#444444"/>
<path d="M674.108 587.124C673.156 588.077 671.865 588.612 670.518 588.612H644.243C642.896 588.612 641.604 588.077 640.652 587.124H674.108Z" fill="url(#paint0_linear_46_8706)" fill-opacity="0.5"/>
<path d="M674.108 587.124C673.156 588.077 671.865 588.612 670.518 588.612H644.243C642.896 588.612 641.604 588.077 640.652 587.124H674.108Z" fill="url(#paint1_linear_46_8706)" fill-opacity="0.8"/>
<path d="M638.422 584.148H676.339L674.108 587.124H640.652L638.422 584.148Z" fill="#C4C4C4"/>
<path d="M638.422 584.148H676.339L674.108 587.124H640.652L638.422 584.148Z" fill="url(#paint2_linear_46_8706)" fill-opacity="0.8"/>
<path d="M145.503 587.124C144.551 588.077 143.259 588.612 141.912 588.612H115.638C114.291 588.612 112.999 588.077 112.047 587.124H145.503Z" fill="#444444"/>
<path d="M145.503 587.124C144.551 588.077 143.259 588.612 141.912 588.612H115.638C114.291 588.612 112.999 588.077 112.047 587.124H145.503Z" fill="url(#paint3_linear_46_8706)" fill-opacity="0.5"/>
<path d="M145.503 587.124C144.551 588.077 143.259 588.612 141.912 588.612H115.638C114.291 588.612 112.999 588.077 112.047 587.124H145.503Z" fill="url(#paint4_linear_46_8706)" fill-opacity="0.8"/>
<path d="M109.816 584.147H147.733L145.503 587.124H112.047L109.816 584.147Z" fill="#C4C4C4"/>
<path d="M109.816 584.147H147.733L145.503 587.124H112.047L109.816 584.147Z" fill="url(#paint5_linear_46_8706)" fill-opacity="0.8"/>
<path fill-rule="evenodd" clip-rule="evenodd" d="M80.0781 563.842C80.0781 563.549 80.308 563.312 80.5915 563.312H705.565C705.848 563.312 706.078 563.549 706.078 563.842V573.913C706.078 577.461 704.219 580.799 701.617 582.659C699.791 583.591 697.433 584.147 694.926 584.147H91.2301C88.7237 584.147 86.3655 583.591 84.5389 582.659C81.9368 580.799 80.0781 577.461 80.0781 573.913V563.842Z" fill="#777777"/>
<path d="M91.2303 584.147H694.926C697.433 584.147 699.791 583.591 701.617 582.659H84.5391C86.3656 583.591 88.7238 584.147 91.2303 584.147Z" fill="url(#paint6_linear_46_8706)" fill-opacity="0.4"/>
<path d="M80.5915 563.312C80.308 563.312 80.0781 563.549 80.0781 563.842V573.913C80.0781 577.461 81.9368 580.799 84.5389 582.659H701.617C704.219 580.799 706.078 577.461 706.078 573.913V563.842C706.078 563.549 705.848 563.312 705.565 563.312H80.5915Z" fill="url(#paint7_radial_46_8706)" fill-opacity="0.6"/>
<path d="M80.5915 563.312C80.308 563.312 80.0781 563.549 80.0781 563.842V573.913C80.0781 577.461 81.9368 580.799 84.5389 582.659H701.617C704.219 580.799 706.078 577.461 706.078 573.913V563.842C706.078 563.549 705.848 563.312 705.565 563.312H80.5915Z" fill="url(#paint8_linear_46_8706)" fill-opacity="0.5"/>
<path d="M136.582 219.612C136.582 212.985 141.955 207.612 148.582 207.612H637.575C644.202 207.612 649.575 212.985 649.575 219.612V551.312C649.575 557.939 644.202 563.312 637.575 563.312H148.582C141.955 563.312 136.582 557.939 136.582 551.312L136.582 219.612Z" fill="black"/>
<mask id="mask0_46_8706" style="mask-type:alpha" maskUnits="userSpaceOnUse" x="144" y="215" width="498" height="332">
<path d="M144.759 221.371C144.759 218.293 147.245 215.798 150.311 215.798H365.066C365.902 215.798 366.58 216.478 366.58 217.318V222.384C366.58 223.783 367.71 224.917 369.104 224.917H417.051C418.445 224.917 419.575 223.783 419.575 222.384V217.318C419.575 216.478 420.253 215.798 421.089 215.798H635.844C638.91 215.798 641.396 218.293 641.396 221.371C641.396 326.917 641.396 441.394 641.396 546.94H144.759C144.756 441.394 144.759 326.917 144.759 221.371Z" fill="#FF3E3E"/>
</mask>
<g mask="url(#mask0_46_8706)">
<rect x="144.758" y="215.798" width="496.637" height="331.143" rx="1" fill="#F8FBFF"/>
</g>
<rect x="136.582" y="552.149" width="512.993" height="11.1621" fill="#1B1B1B"/>
<g style="mix-blend-mode:hard-light" opacity="0.8">
<path d="M351.445 563.312H447.353C447.353 567.652 443.222 569.265 439.973 569.265H358.825C355.576 569.265 351.445 567.652 351.445 563.312Z" fill="#E1E2E3"/>
<path d="M351.445 563.312H447.353C447.353 567.652 443.222 569.265 439.973 569.265H358.825C355.576 569.265 351.445 567.652 351.445 563.312Z" fill="url(#paint9_linear_46_8706)"/>
</g>
<g style="mix-blend-mode:multiply">
<path d="M351.445 563.312H447.353C447.353 567.652 443.222 569.265 439.973 569.265H358.825C355.576 569.265 351.445 567.652 351.445 563.312Z" fill="#E1E2E3"/>
<path d="M351.445 563.312H447.353C447.353 567.652 443.222 569.265 439.973 569.265H358.825C355.576 569.265 351.445 567.652 351.445 563.312Z" fill="url(#paint10_linear_46_8706)"/>
</g>
</g>
<g filter="url(#filter1_b_46_8706)">
<rect width="260.07" height="159.279" rx="16" transform="matrix(1 0 0.00488691 0.999988 79.2969 268.957)" fill="#325239" fill-opacity="0.45"/>
</g>
<defs>
<filter id="filter0_d_46_8706" x="0.078125" y="127.612" width="826" height="581" filterUnits="userSpaceOnUse" color-interpolation-filters="sRGB">
<feFlood flood-opacity="0" result="BackgroundImageFix"/>
<feColorMatrix in="SourceAlpha" type="matrix" values="0 0 0 0 0 0 0 0 0 0 0 0 0 0 0 0 0 0 127 0" result="hardAlpha"/>
<feOffset dx="20" dy="20"/>
<feGaussianBlur stdDeviation="50"/>
<feComposite in2="hardAlpha" operator="out"/>
<feColorMatrix type="matrix" values="0 0 0 0 0 0 0 0 0 0 0 0 0 0 0 0 0 0 0.2 0"/>
<feBlend mode="normal" in2="BackgroundImageFix" result="effect1_dropShadow_46_8706"/>
<feBlend mode="normal" in="SourceGraphic" in2="effect1_dropShadow_46_8706" result="shape"/>
</filter>
<filter id="filter1_b_46_8706" x="51.4111" y="241.071" width="316.85" height="215.083" filterUnits="userSpaceOnUse" color-interpolation-filters="sRGB">
<feFlood flood-opacity="0" result="BackgroundImageFix"/>
<feGaussianBlur in="BackgroundImageFix" stdDeviation="13.9429"/>
<feComposite in2="SourceAlpha" operator="in" result="effect1_backgroundBlur_46_8706"/>
<feBlend mode="normal" in="SourceGraphic" in2="effect1_backgroundBlur_46_8706" result="shape"/>
</filter>
<linearGradient id="paint0_linear_46_8706" x1="657.38" y1="587.124" x2="657.38" y2="588.612" gradientUnits="userSpaceOnUse">
<stop offset="0.130273"/>
<stop offset="0.375191" stop-opacity="0"/>
</linearGradient>
<linearGradient id="paint1_linear_46_8706" x1="640.652" y1="588.612" x2="674.108" y2="588.612" gradientUnits="userSpaceOnUse">
<stop offset="0.035499" stop-opacity="0"/>
<stop offset="0.183503"/>
<stop offset="0.398916" stop-opacity="0"/>
<stop offset="0.633378" stop-opacity="0"/>
<stop offset="0.837067"/>
<stop offset="0.970418" stop-opacity="0"/>
</linearGradient>
<linearGradient id="paint2_linear_46_8706" x1="638.422" y1="587.124" x2="675.595" y2="587.124" gradientUnits="userSpaceOnUse">
<stop stop-opacity="0"/>
<stop offset="0.186299"/>
<stop offset="0.456756" stop-opacity="0"/>
<stop offset="0.546908" stop-opacity="0"/>
<stop offset="0.835968"/>
<stop offset="1" stop-opacity="0"/>
</linearGradient>
<linearGradient id="paint3_linear_46_8706" x1="128.775" y1="587.124" x2="128.775" y2="588.612" gradientUnits="userSpaceOnUse">
<stop offset="0.130273"/>
<stop offset="0.375191" stop-opacity="0"/>
</linearGradient>
<linearGradient id="paint4_linear_46_8706" x1="112.047" y1="588.612" x2="145.503" y2="588.612" gradientUnits="userSpaceOnUse">
<stop offset="0.035499" stop-opacity="0"/>
<stop offset="0.183503"/>
<stop offset="0.398916" stop-opacity="0"/>
<stop offset="0.633378" stop-opacity="0"/>
<stop offset="0.837067"/>
<stop offset="0.970418" stop-opacity="0"/>
</linearGradient>
<linearGradient id="paint5_linear_46_8706" x1="109.816" y1="587.124" x2="146.99" y2="587.124" gradientUnits="userSpaceOnUse">
<stop stop-opacity="0"/>
<stop offset="0.186299"/>
<stop offset="0.456756" stop-opacity="0"/>
<stop offset="0.546908" stop-opacity="0"/>
<stop offset="0.835968"/>
<stop offset="1" stop-opacity="0"/>
</linearGradient>
<linearGradient id="paint6_linear_46_8706" x1="664.444" y1="582.659" x2="664.444" y2="584.147" gradientUnits="userSpaceOnUse">
<stop offset="0.444236" stop-opacity="0"/>
<stop offset="0.867408"/>
</linearGradient>
<radialGradient id="paint7_radial_46_8706" cx="0" cy="0" r="1" gradientUnits="userSpaceOnUse" gradientTransform="translate(393.078 582.659) rotate(-180) scale(313 10145.6)">
<stop stop-color="white" stop-opacity="0.5"/>
<stop offset="0.364583" stop-color="white" stop-opacity="0"/>
<stop offset="0.703125" stop-color="white" stop-opacity="0"/>
<stop offset="0.96875" stop-color="white"/>
<stop offset="1" stop-color="white" stop-opacity="0"/>
</radialGradient>
<linearGradient id="paint8_linear_46_8706" x1="666.674" y1="563.312" x2="666.674" y2="582.659" gradientUnits="userSpaceOnUse">
<stop offset="0.102925" stop-opacity="0"/>
<stop offset="0.6646"/>
<stop offset="0.772607"/>
<stop offset="0.90268" stop-opacity="0.58"/>
<stop offset="1" stop-opacity="0"/>
</linearGradient>
<linearGradient id="paint9_linear_46_8706" x1="447.353" y1="569.265" x2="351.445" y2="569.265" gradientUnits="userSpaceOnUse">
<stop stop-color="#8A8A8A"/>
<stop offset="0.203125" stop-color="#AAAAAA" stop-opacity="0"/>
<stop offset="0.8125" stop-color="#AAAAAA" stop-opacity="0"/>
<stop offset="1" stop-color="#8A8A8A"/>
</linearGradient>
<linearGradient id="paint10_linear_46_8706" x1="447.353" y1="569.265" x2="351.445" y2="569.265" gradientUnits="userSpaceOnUse">
<stop stop-color="#8A8A8A"/>
<stop offset="0.203125" stop-color="#AAAAAA" stop-opacity="0"/>
<stop offset="0.8125" stop-color="#AAAAAA" stop-opacity="0"/>
<stop offset="1" stop-color="#8A8A8A"/>
</linearGradient>
</defs>
</svg>
