<svg width="1900" height="1048" viewBox="0 0 1920 1048" fill="none" xmlns="http://www.w3.org/2000/svg">
<rect y="0.930176" width="1920" height="1046.52" fill="#325239"/>
<mask id="mask0_46_8472" style="mask-type:alpha" maskUnits="userSpaceOnUse" x="0" y="0" width="1920" height="1048">
<rect y="0.929688" width="1920" height="1046.52" fill="#25285A"/>
</mask>
<g mask="url(#mask0_46_8472)">
<g opacity="0.2">
<path d="M597.563 457.219L583.963 421.949L569.576 386.414L607.171 392.018L644.767 397.622L621.559 427.553L597.563 457.219Z" stroke="url(#paint0_linear_46_8472)" stroke-width="2" stroke-miterlimit="10"/>
<path d="M595.98 459.318L582.651 420.63L569.057 382.729L608.754 389.916L649.238 397.367L622.871 428.869L595.98 459.318Z" stroke="url(#paint1_linear_46_8472)" stroke-width="2" stroke-miterlimit="10"/>
<path d="M594.131 462.208L581.073 420.101L568.014 377.994L610.334 387.816L653.708 397.114L624.446 429.399L594.131 462.208Z" stroke="url(#paint2_linear_46_8472)" stroke-width="2" stroke-miterlimit="10"/>
<path d="M592.552 464.308L579.763 418.783L566.975 373.258L612.973 385.192L658.183 396.861L625.761 430.717L592.552 464.308Z" stroke="url(#paint3_linear_46_8472)" stroke-width="2" stroke-miterlimit="10"/>
<path d="M589.918 466.933L578.453 417.465L566.2 367.733L614.822 382.303L663.445 396.873L627.076 432.035L589.918 466.933Z" stroke="url(#paint4_linear_46_8472)" stroke-width="2" stroke-miterlimit="10"/>
<path d="M587.281 469.556L576.352 415.882L566.211 362.472L617.457 379.678L669.492 397.148L628.387 433.352L587.281 469.556Z" stroke="url(#paint5_linear_46_8472)" stroke-width="2" stroke-miterlimit="10"/>
<path d="M584.644 472.181L575.038 414.565L565.697 356.161L620.091 377.055L675.538 397.425L630.485 434.935L584.644 472.181Z" stroke="url(#paint6_linear_46_8472)" stroke-width="2" stroke-miterlimit="10"/>
<path d="M581.745 475.596L573.203 412.196L565.185 349.849L623.781 373.908L682.111 398.756L631.534 437.043L581.745 475.596Z" stroke="url(#paint7_linear_46_8472)" stroke-width="2" stroke-miterlimit="10"/>
<path d="M578.323 477.952L571.893 410.875L564.94 342.745L627.207 371.545L688.95 399.293L633.637 438.622L578.323 477.952Z" stroke="url(#paint8_linear_46_8472)" stroke-width="2" stroke-miterlimit="10"/>
<path d="M574.632 481.101L570.055 408.505L565.743 335.121L630.893 368.399L696.308 400.888L635.47 440.994L574.632 481.101Z" stroke="url(#paint9_linear_46_8472)" stroke-width="2" stroke-miterlimit="10"/>
<path d="M570.153 483.986L568.218 406.136L566.547 327.497L634.845 364.464L703.667 402.484L637.304 443.367L570.153 483.986Z" stroke="url(#paint10_linear_46_8472)" stroke-width="2" stroke-miterlimit="10"/>
<path d="M565.412 487.656L566.647 402.976L566.829 318.818L640.111 361.845L712.604 404.606L638.875 446.526L565.412 487.656Z" stroke="url(#paint11_linear_46_8472)" stroke-width="2" stroke-miterlimit="10"/>
<path d="M559.879 491.064L564.02 400.34L568.161 309.617L644.85 358.173L721.274 407.518L640.708 448.896L559.879 491.064Z" stroke="url(#paint12_linear_46_8472)" stroke-width="2" stroke-miterlimit="10"/>
<path d="M554.35 494.47L562.45 397.18L570.55 299.891L650.381 354.766L730.736 410.694L643.069 452.32L554.35 494.47Z" stroke="url(#paint13_linear_46_8472)" stroke-width="2" stroke-miterlimit="10"/>
<path d="M548.82 497.876L560.356 392.967L572.415 289.111L656.701 351.622L740.986 414.134L644.641 455.478L548.82 497.876Z" stroke="url(#paint14_linear_46_8472)" stroke-width="2" stroke-miterlimit="10"/>
<path d="M541.715 500.755L558.787 389.809L575.334 277.81L663.809 348.746L751.761 418.629L646.738 459.692L541.715 500.755Z" stroke="url(#paint15_linear_46_8472)" stroke-width="2" stroke-miterlimit="10"/>
<path d="M534.34 504.421L556.689 385.596L578.513 265.719L671.178 345.08L763.319 423.388L648.83 463.904L534.34 504.421Z" stroke="url(#paint16_linear_46_8472)" stroke-width="2" stroke-miterlimit="10"/>
<path d="M526.181 507.822L554.86 380.596L582.75 253.105L679.339 341.679L775.141 429.989L650.661 468.905L526.181 507.822Z" stroke="url(#paint17_linear_46_8472)" stroke-width="2" stroke-miterlimit="10"/>
<path d="M517.235 510.959L553.032 375.595L588.04 239.967L687.501 338.278L787.751 436.854L652.493 473.906L517.235 510.959Z" stroke="url(#paint18_linear_46_8472)" stroke-width="2" stroke-miterlimit="10"/>
<path d="M508.023 514.882L550.679 369.539L593.859 225.25L697.504 334.616L801.15 443.982L654.324 478.905L508.023 514.882Z" stroke="url(#paint19_linear_46_8472)" stroke-width="2" stroke-miterlimit="10"/>
<path d="M497.496 517.49L549.112 363.751L600.728 210.012L708.028 332.01L815.593 453.219L656.412 485.749L497.496 517.49Z" stroke="url(#paint20_linear_46_8472)" stroke-width="2" stroke-miterlimit="10"/>
<path d="M485.918 520.621L547.812 357.174L608.652 194.25L719.607 328.879L829.773 463.243L657.978 491.538L485.918 520.621Z" stroke="url(#paint21_linear_46_8472)" stroke-width="2" stroke-miterlimit="10"/>
<path d="M473.551 523.486L545.722 350.33L617.894 177.174L731.973 326.011L846.053 474.848L659.802 499.167L473.551 523.486Z" stroke="url(#paint22_linear_46_8472)" stroke-width="2" stroke-miterlimit="10"/>
<path d="M460.398 526.089L543.901 342.701L628.456 158.789L745.132 323.412L862.072 487.246L661.629 506.8L460.398 526.089Z" stroke="url(#paint23_linear_46_8472)" stroke-width="2" stroke-miterlimit="10"/>
<path d="M445.66 528.162L543.123 334.547L640.062 139.879L759.069 321.076L879.129 501.748L662.394 514.955L445.66 528.162Z" stroke="url(#paint24_linear_46_8472)" stroke-width="2" stroke-miterlimit="10"/>
<path d="M430.141 529.968L541.829 325.339L653.517 120.709L775.379 319.532L896.452 518.09L663.69 524.162L430.141 529.968Z" stroke="url(#paint25_linear_46_8472)" stroke-width="2" stroke-miterlimit="10"/>
<path d="M413.832 531.51L541.587 315.607L668.554 99.4387L791.688 317.989L915.086 535.75L664.721 534.157L413.832 531.51Z" stroke="url(#paint26_linear_46_8472)" stroke-width="2" stroke-miterlimit="10"/>
<path d="M395.949 532.524L540.825 304.823L685.435 77.9103L810.365 317.241L934.506 556.306L664.966 543.889L395.949 532.524Z" stroke="url(#paint27_linear_46_8472)" stroke-width="2" stroke-miterlimit="10"/>
<path d="M376.75 532.221L541.11 293.516L705.471 54.8117L829.826 316.758L954.181 578.704L665.465 555.463L376.75 532.221Z" stroke="url(#paint28_linear_46_8472)" stroke-width="2" stroke-miterlimit="10"/>
<path d="M354.922 531.908L540.609 281.941L726.561 31.1854L850.6 317.589L974.904 603.205L664.913 567.557L354.922 531.908Z" stroke="url(#paint29_linear_46_8472)" stroke-width="2" stroke-miterlimit="10"/>
<path d="M332.57 530.545L541.691 268.268L750.546 6.77965L873.216 318.165L995.621 630.338L664.096 580.442L332.57 530.545Z" stroke="url(#paint30_linear_46_8472)" stroke-width="2" stroke-miterlimit="10"/>
<path d="M308.641 528.654L542.771 254.597L777.689 -19.1963L896.878 320.848L1017.12 660.368L663.013 594.117L308.641 528.654Z" stroke="url(#paint31_linear_46_8472)" stroke-width="2" stroke-miterlimit="10"/>
<path d="M282.613 525.178L545.171 239.61L806.676 -45.4343L922.908 324.321L1039.4 693.289L661.403 609.365L282.613 525.178Z" stroke="url(#paint32_linear_46_8472)" stroke-width="2" stroke-miterlimit="10"/>
<path d="M255.273 520.385L547.836 223.836L839.611 -72.977L951.303 328.591L1062.21 729.894L658.74 625.14L255.273 520.385Z" stroke="url(#paint33_linear_46_8472)" stroke-width="2" stroke-miterlimit="10"/>
<path d="M225.566 514.797L551.029 206.485L876.227 -101.039L980.744 334.966L1084.74 769.917L655.546 642.49L225.566 514.797Z" stroke="url(#paint34_linear_46_8472)" stroke-width="2" stroke-miterlimit="10"/>
<path d="M194.812 507.107L555.275 188.614L916.79 -130.403L1011.76 341.874L1107.79 813.627L651.299 660.367L194.812 507.107Z" stroke="url(#paint35_linear_46_8472)" stroke-width="2" stroke-miterlimit="10"/>
<path d="M160.905 498.354L560.839 169.427L960.773 -159.501L1045.67 350.625L1131.09 861.804L645.47 680.341L160.905 498.354Z" stroke="url(#paint36_linear_46_8472)" stroke-width="2" stroke-miterlimit="10"/>
<path d="M125.164 487.23L566.934 148.662L1009.49 -189.641L1081.41 361.747L1153.86 914.188L639.377 701.103L125.164 487.23Z" stroke="url(#paint37_linear_46_8472)" stroke-width="2" stroke-miterlimit="10"/>
<path d="M87.5865 473.735L575.136 126.851L1062.95 -220.822L1119.78 375.504L1176.61 971.831L631.967 723.177L87.5865 473.735Z" stroke="url(#paint38_linear_46_8472)" stroke-width="2" stroke-miterlimit="10"/>
<path d="M47.117 458.396L583.863 103.466L1121.4 -251.2L1159.98 391.636L1198.83 1033.68L622.448 746.302L47.117 458.396Z" stroke="url(#paint39_linear_46_8472)" stroke-width="2" stroke-miterlimit="10"/>
<path d="M4.29056 439.631L594.699 79.0309L1185.37 -282.358L1203.07 409.613L1220.78 1101.58L612.401 771.002L4.29056 439.631Z" stroke="url(#paint40_linear_46_8472)" stroke-width="2" stroke-miterlimit="10"/>
<path d="M-41.1623 418.23L607.116 52.4943L1255.39 -313.241L1248.52 431.013L1240.6 1175.79L600.246 796.748L-41.1623 418.23Z" stroke="url(#paint41_linear_46_8472)" stroke-width="2" stroke-miterlimit="10"/>
<path d="M-89.236 394.193L621.642 24.9109L1332.26 -343.582L1296.34 455.837L1260.42 1255.26L585.724 824.33L-89.236 394.193Z" stroke="url(#paint42_linear_46_8472)" stroke-width="2" stroke-miterlimit="10"/>
<path d="M-139.408 365.944L638.271 -3.71944L1415.16 -373.647L1346.51 484.085L1278.64 1342.08L569.616 854.013L-139.408 365.944Z" stroke="url(#paint43_linear_46_8472)" stroke-width="2" stroke-miterlimit="10"/>
<path d="M-192.462 333.218L656.748 -35.2383L1505.69 -402.906L1400.61 516.287L1294.48 1436.01L551.402 884.744L-192.462 333.218Z" stroke="url(#paint44_linear_46_8472)" stroke-width="2" stroke-miterlimit="10"/>
<path d="M-248.665 296.804L677.854 -66.7516L1604.64 -431.095L1456.55 553.491L1307.93 1537.02L530.029 917.046L-248.665 296.804Z" stroke="url(#paint45_linear_46_8472)" stroke-width="2" stroke-miterlimit="10"/>
<path d="M-306.695 255.389L702.388 -100.624L1711.74 -457.426L1515.37 595.171L1319.27 1646.98L506.288 951.184L-306.695 255.389Z" stroke="url(#paint46_linear_46_8472)" stroke-width="2" stroke-miterlimit="10"/>
<path d="M-368.134 208.444L729.29 -136.332L1826.71 -481.109L1576.81 642.117L1326.9 1765.34L479.385 986.893L-368.134 208.444Z" stroke="url(#paint47_linear_46_8472)" stroke-width="2" stroke-miterlimit="10"/>
<path d="M-432.979 155.967L760.141 -173.349L1952.47 -502.93L1641.65 694.592L1330.84 1892.11L448.535 1023.91L-432.979 155.967Z" stroke="url(#paint48_linear_46_8472)" stroke-width="2" stroke-miterlimit="10"/>
<path d="M-499.917 96.6509L794.146 -211.933L2087.69 -521.571L1708.59 753.911L1329.49 2029.39L414.522 1062.5L-499.917 96.6509Z" stroke="url(#paint49_linear_46_8472)" stroke-width="2" stroke-miterlimit="10"/>
<path d="M-569.99 31.0133L832.373 -252.616L2234.74 -536.244L1779.46 819.812L1324.18 2175.87L377.093 1103.44L-569.99 31.0133Z" stroke="url(#paint50_linear_46_8472)" stroke-width="2" stroke-miterlimit="10"/>
</g>
</g>
<defs>
<linearGradient id="paint0_linear_46_8472" x1="562.429" y1="407.701" x2="633.385" y2="431.523" gradientUnits="userSpaceOnUse">
<stop stop-color="#B8D57E"/>
<stop offset="1" stop-color="white" stop-opacity="0.4"/>
</linearGradient>
<linearGradient id="paint1_linear_46_8472" x1="560.72" y1="407.564" x2="637.195" y2="433.24" gradientUnits="userSpaceOnUse">
<stop stop-color="#B8D57E"/>
<stop offset="1" stop-color="white" stop-opacity="0.4"/>
</linearGradient>
<linearGradient id="paint2_linear_46_8472" x1="558.088" y1="407.559" x2="640.87" y2="435.352" gradientUnits="userSpaceOnUse">
<stop stop-color="#B8D57E"/>
<stop offset="1" stop-color="white" stop-opacity="0.4"/>
</linearGradient>
<linearGradient id="paint3_linear_46_8472" x1="555.593" y1="407.159" x2="644.683" y2="437.07" gradientUnits="userSpaceOnUse">
<stop stop-color="#B8D57E"/>
<stop offset="1" stop-color="white" stop-opacity="0.4"/>
</linearGradient>
<linearGradient id="paint4_linear_46_8472" x1="552.966" y1="407.154" x2="649.151" y2="439.447" gradientUnits="userSpaceOnUse">
<stop stop-color="#B8D57E"/>
<stop offset="1" stop-color="white" stop-opacity="0.4"/>
</linearGradient>
<linearGradient id="paint5_linear_46_8472" x1="551.123" y1="407.411" x2="654.404" y2="442.087" gradientUnits="userSpaceOnUse">
<stop stop-color="#B8D57E"/>
<stop offset="1" stop-color="white" stop-opacity="0.4"/>
</linearGradient>
<linearGradient id="paint6_linear_46_8472" x1="549.153" y1="405.436" x2="660.318" y2="442.758" gradientUnits="userSpaceOnUse">
<stop stop-color="#B8D57E"/>
<stop offset="1" stop-color="white" stop-opacity="0.4"/>
</linearGradient>
<linearGradient id="paint7_linear_46_8472" x1="547.054" y1="403.855" x2="666.891" y2="444.089" gradientUnits="userSpaceOnUse">
<stop stop-color="#B8D57E"/>
<stop offset="1" stop-color="white" stop-opacity="0.4"/>
</linearGradient>
<linearGradient id="paint8_linear_46_8472" x1="545.22" y1="401.481" x2="673.73" y2="444.626" gradientUnits="userSpaceOnUse">
<stop stop-color="#B8D57E"/>
<stop offset="1" stop-color="white" stop-opacity="0.4"/>
</linearGradient>
<linearGradient id="paint9_linear_46_8472" x1="544.171" y1="399.376" x2="681.353" y2="445.433" gradientUnits="userSpaceOnUse">
<stop stop-color="#B8D57E"/>
<stop offset="1" stop-color="white" stop-opacity="0.4"/>
</linearGradient>
<linearGradient id="paint10_linear_46_8472" x1="543.121" y1="397.271" x2="688.976" y2="446.24" gradientUnits="userSpaceOnUse">
<stop stop-color="#B8D57E"/>
<stop offset="1" stop-color="white" stop-opacity="0.4"/>
</linearGradient>
<linearGradient id="paint11_linear_46_8472" x1="541.286" y1="394.899" x2="698.178" y2="447.574" gradientUnits="userSpaceOnUse">
<stop stop-color="#B8D57E"/>
<stop offset="1" stop-color="white" stop-opacity="0.4"/>
</linearGradient>
<linearGradient id="paint12_linear_46_8472" x1="540.367" y1="392.399" x2="707.509" y2="448.515" gradientUnits="userSpaceOnUse">
<stop stop-color="#B8D57E"/>
<stop offset="1" stop-color="white" stop-opacity="0.4"/>
</linearGradient>
<linearGradient id="paint13_linear_46_8472" x1="540.375" y1="389.769" x2="717.766" y2="449.325" gradientUnits="userSpaceOnUse">
<stop stop-color="#B8D57E"/>
<stop offset="1" stop-color="white" stop-opacity="0.4"/>
</linearGradient>
<linearGradient id="paint14_linear_46_8472" x1="539.725" y1="386.479" x2="728.942" y2="450.006" gradientUnits="userSpaceOnUse">
<stop stop-color="#B8D57E"/>
<stop offset="1" stop-color="white" stop-opacity="0.4"/>
</linearGradient>
<linearGradient id="paint15_linear_46_8472" x1="539.997" y1="383.062" x2="741.041" y2="450.56" gradientUnits="userSpaceOnUse">
<stop stop-color="#B8D57E"/>
<stop offset="1" stop-color="white" stop-opacity="0.4"/>
</linearGradient>
<linearGradient id="paint16_linear_46_8472" x1="540.264" y1="379.643" x2="753.922" y2="451.376" gradientUnits="userSpaceOnUse">
<stop stop-color="#B8D57E"/>
<stop offset="1" stop-color="white" stop-opacity="0.4"/>
</linearGradient>
<linearGradient id="paint17_linear_46_8472" x1="541.457" y1="376.096" x2="767.729" y2="452.064" gradientUnits="userSpaceOnUse">
<stop stop-color="#B8D57E"/>
<stop offset="1" stop-color="white" stop-opacity="0.4"/>
</linearGradient>
<linearGradient id="paint18_linear_46_8472" x1="543.571" y1="372.419" x2="782.457" y2="452.622" gradientUnits="userSpaceOnUse">
<stop stop-color="#B8D57E"/>
<stop offset="1" stop-color="white" stop-opacity="0.4"/>
</linearGradient>
<linearGradient id="paint19_linear_46_8472" x1="545.816" y1="368.345" x2="798.105" y2="453.048" gradientUnits="userSpaceOnUse">
<stop stop-color="#B8D57E"/>
<stop offset="1" stop-color="white" stop-opacity="0.4"/>
</linearGradient>
<linearGradient id="paint20_linear_46_8472" x1="549.112" y1="363.751" x2="815.593" y2="453.219" gradientUnits="userSpaceOnUse">
<stop stop-color="#B8D57E"/>
<stop offset="1" stop-color="white" stop-opacity="0.4"/>
</linearGradient>
<linearGradient id="paint21_linear_46_8472" x1="541.372" y1="355.45" x2="833.082" y2="453.388" gradientUnits="userSpaceOnUse">
<stop stop-color="#B8D57E"/>
<stop offset="1" stop-color="white" stop-opacity="0.4"/>
</linearGradient>
<linearGradient id="paint22_linear_46_8472" x1="533.108" y1="346.094" x2="853.2" y2="453.562" gradientUnits="userSpaceOnUse">
<stop stop-color="#B8D57E"/>
<stop offset="1" stop-color="white" stop-opacity="0.4"/>
</linearGradient>
<linearGradient id="paint23_linear_46_8472" x1="524.323" y1="335.69" x2="873.586" y2="452.951" gradientUnits="userSpaceOnUse">
<stop stop-color="#B8D57E"/>
<stop offset="1" stop-color="white" stop-opacity="0.4"/>
</linearGradient>
<linearGradient id="paint24_linear_46_8472" x1="514.084" y1="324.359" x2="895.672" y2="452.473" gradientUnits="userSpaceOnUse">
<stop stop-color="#B8D57E"/>
<stop offset="1" stop-color="white" stop-opacity="0.4"/>
</linearGradient>
<linearGradient id="paint25_linear_46_8472" x1="503.197" y1="312.369" x2="918.686" y2="451.864" gradientUnits="userSpaceOnUse">
<stop stop-color="#B8D57E"/>
<stop offset="1" stop-color="white" stop-opacity="0.4"/>
</linearGradient>
<linearGradient id="paint26_linear_46_8472" x1="491.918" y1="298.931" x2="943.674" y2="450.603" gradientUnits="userSpaceOnUse">
<stop stop-color="#B8D57E"/>
<stop offset="1" stop-color="white" stop-opacity="0.4"/>
</linearGradient>
<linearGradient id="paint27_linear_46_8472" x1="479.197" y1="284.571" x2="970.373" y2="449.477" gradientUnits="userSpaceOnUse">
<stop stop-color="#B8D57E"/>
<stop offset="1" stop-color="white" stop-opacity="0.4"/>
</linearGradient>
<linearGradient id="paint28_linear_46_8472" x1="465.424" y1="268.105" x2="998.385" y2="447.041" gradientUnits="userSpaceOnUse">
<stop stop-color="#B8D57E"/>
<stop offset="1" stop-color="white" stop-opacity="0.4"/>
</linearGradient>
<linearGradient id="paint29_linear_46_8472" x1="449.287" y1="250.842" x2="1027.98" y2="445.13" gradientUnits="userSpaceOnUse">
<stop stop-color="#B8D57E"/>
<stop offset="1" stop-color="white" stop-opacity="0.4"/>
</linearGradient>
<linearGradient id="paint30_linear_46_8472" x1="432.758" y1="232.134" x2="1058.75" y2="442.304" gradientUnits="userSpaceOnUse">
<stop stop-color="#B8D57E"/>
<stop offset="1" stop-color="white" stop-opacity="0.4"/>
</linearGradient>
<linearGradient id="paint31_linear_46_8472" x1="415.049" y1="211.716" x2="1091.5" y2="438.826" gradientUnits="userSpaceOnUse">
<stop stop-color="#B8D57E"/>
<stop offset="1" stop-color="white" stop-opacity="0.4"/>
</linearGradient>
<linearGradient id="paint32_linear_46_8472" x1="395.242" y1="189.712" x2="1126.09" y2="435.086" gradientUnits="userSpaceOnUse">
<stop stop-color="#B8D57E"/>
<stop offset="1" stop-color="white" stop-opacity="0.4"/>
</linearGradient>
<linearGradient id="paint33_linear_46_8472" x1="374.387" y1="165.603" x2="1162.79" y2="430.3" gradientUnits="userSpaceOnUse">
<stop stop-color="#B8D57E"/>
<stop offset="1" stop-color="white" stop-opacity="0.4"/>
</linearGradient>
<linearGradient id="paint34_linear_46_8472" x1="351.43" y1="139.911" x2="1200.54" y2="424.99" gradientUnits="userSpaceOnUse">
<stop stop-color="#B8D57E"/>
<stop offset="1" stop-color="white" stop-opacity="0.4"/>
</linearGradient>
<linearGradient id="paint35_linear_46_8472" x1="327.558" y1="111.722" x2="1240.53" y2="418.242" gradientUnits="userSpaceOnUse">
<stop stop-color="#B8D57E"/>
<stop offset="1" stop-color="white" stop-opacity="0.4"/>
</linearGradient>
<linearGradient id="paint36_linear_46_8472" x1="294.975" y1="99.0271" x2="1276.54" y2="428.576" gradientUnits="userSpaceOnUse">
<stop stop-color="#B8D57E"/>
<stop offset="1" stop-color="white" stop-opacity="0.4"/>
</linearGradient>
<linearGradient id="paint37_linear_46_8472" x1="259.762" y1="86.3262" x2="1313.07" y2="439.962" gradientUnits="userSpaceOnUse">
<stop stop-color="#B8D57E"/>
<stop offset="1" stop-color="white" stop-opacity="0.4"/>
</linearGradient>
<linearGradient id="paint38_linear_46_8472" x1="221.788" y1="74.0139" x2="1350.78" y2="453.061" gradientUnits="userSpaceOnUse">
<stop stop-color="#B8D57E"/>
<stop offset="1" stop-color="white" stop-opacity="0.4"/>
</linearGradient>
<linearGradient id="paint39_linear_46_8472" x1="180.127" y1="62.2231" x2="1388.75" y2="468.004" gradientUnits="userSpaceOnUse">
<stop stop-color="#B8D57E"/>
<stop offset="1" stop-color="white" stop-opacity="0.4"/>
</linearGradient>
<linearGradient id="paint40_linear_46_8472" x1="134.786" y1="50.948" x2="1427.77" y2="485.052" gradientUnits="userSpaceOnUse">
<stop stop-color="#B8D57E"/>
<stop offset="1" stop-color="white" stop-opacity="0.4"/>
</linearGradient>
<linearGradient id="paint41_linear_46_8472" x1="85.4954" y1="40.9781" x2="1465.99" y2="504.463" gradientUnits="userSpaceOnUse">
<stop stop-color="#B8D57E"/>
<stop offset="1" stop-color="white" stop-opacity="0.4"/>
</linearGradient>
<linearGradient id="paint42_linear_46_8472" x1="32.5249" y1="31.5265" x2="1505.26" y2="525.981" gradientUnits="userSpaceOnUse">
<stop stop-color="#B8D57E"/>
<stop offset="1" stop-color="white" stop-opacity="0.4"/>
</linearGradient>
<linearGradient id="paint43_linear_46_8472" x1="-24.5289" y1="23.7762" x2="1544.4" y2="550.524" gradientUnits="userSpaceOnUse">
<stop stop-color="#B8D57E"/>
<stop offset="1" stop-color="white" stop-opacity="0.4"/>
</linearGradient>
<linearGradient id="paint44_linear_46_8472" x1="-86.451" y1="17.4622" x2="1582.6" y2="577.827" gradientUnits="userSpaceOnUse">
<stop stop-color="#B8D57E"/>
<stop offset="1" stop-color="white" stop-opacity="0.4"/>
</linearGradient>
<linearGradient id="paint45_linear_46_8472" x1="-153.242" y1="12.5844" x2="1619.88" y2="607.889" gradientUnits="userSpaceOnUse">
<stop stop-color="#B8D57E"/>
<stop offset="1" stop-color="white" stop-opacity="0.4"/>
</linearGradient>
<linearGradient id="paint46_linear_46_8472" x1="-224.506" y1="10.5894" x2="1656.63" y2="642.158" gradientUnits="userSpaceOnUse">
<stop stop-color="#B8D57E"/>
<stop offset="1" stop-color="white" stop-opacity="0.4"/>
</linearGradient>
<linearGradient id="paint47_linear_46_8472" x1="-301.96" y1="11.3427" x2="1691.13" y2="680.498" gradientUnits="userSpaceOnUse">
<stop stop-color="#B8D57E"/>
<stop offset="1" stop-color="white" stop-opacity="0.4"/>
</linearGradient>
<linearGradient id="paint48_linear_46_8472" x1="-385.333" y1="14.0543" x2="1723.65" y2="722.12" gradientUnits="userSpaceOnUse">
<stop stop-color="#B8D57E"/>
<stop offset="1" stop-color="white" stop-opacity="0.4"/>
</linearGradient>
<linearGradient id="paint49_linear_46_8472" x1="-474.507" y1="20.964" x2="1752.74" y2="768.734" gradientUnits="userSpaceOnUse">
<stop stop-color="#B8D57E"/>
<stop offset="1" stop-color="white" stop-opacity="0.4"/>
</linearGradient>
<linearGradient id="paint50_linear_46_8472" x1="-569.99" y1="31.0132" x2="1779.46" y2="819.812" gradientUnits="userSpaceOnUse">
<stop stop-color="#B8D57E"/>
<stop offset="1" stop-color="white" stop-opacity="0.4"/>
</linearGradient>
</defs>
</svg>
