<svg width="81" height="81" viewBox="0 0 81 81" fill="none" xmlns="http://www.w3.org/2000/svg">
<path d="M57.5981 24.0278L47.188 11.4482L44.336 6.78386L46.6176 0.98877L32.7852 12.579L43.1952 25.0172L46.0472 29.6816L43.7656 35.4767L57.5981 24.0278Z" fill="white"/>
<path d="M37.4906 18.3727L21.2339 18.6554L15.8149 17.9487L12.8203 12.5776L13.2481 30.5283L29.5048 30.2456L34.9238 30.9523L37.9184 36.3234L37.4906 18.3727Z" fill="white"/>
<path d="M20.5191 30.5278L10.6795 43.3901L6.82921 47.3477L0.554688 46.3583L14.9576 57.1005L24.7972 44.2382L28.6474 40.4219L34.922 41.4113L20.5191 30.5278Z" fill="white"/>
<path d="M19.5215 51.3055L23.3718 66.9946L24.0848 72.3657L19.3789 76.606L36.7765 72.083L32.7836 56.3939L32.0706 51.0228L36.7765 46.9238L19.5215 51.3055Z" fill="white"/>
<path d="M35.207 65.0167L49.8952 71.8012L54.601 74.7695L55.0288 80.9886L62.3016 64.5927L47.4709 57.8082L42.765 54.9813L42.3372 48.7622L35.207 65.0167Z" fill="white"/>
<path d="M55.7417 61.3444L70.2872 54.1358L75.4209 52.2984L80.5546 55.832L72.2836 40.0015L57.7382 47.21L52.4618 49.0475L47.3281 45.5139L55.7417 61.3444Z" fill="white"/>
<path d="M65.7218 43.1098L69.0017 27.2793L70.8555 22.0495L76.8449 20.3534L59.1621 16.8198L55.8822 32.6503L54.0284 37.88L48.0391 39.5762L65.7218 43.1098Z" fill="white"/>
</svg>
