<svg width="200" height="230" viewBox="0 0 439 726" fill="none" xmlns="http://www.w3.org/2000/svg">
<g opacity="0.1">
<path d="M208.967 208.236L94.8685 302.657L52.5623 328.525L-5.48413e-06 307.83L105.125 433.292L217.941 338.872L260.247 313.004L312.81 333.699L208.967 208.236Z" fill="#325239"/>
<path d="M157.683 390.61L160.247 538.061L153.837 587.211L105.121 614.373L267.936 610.493L265.372 463.042L271.782 413.892L320.498 386.73L157.683 390.61Z" fill="#B8D57E"/>
<path d="M267.922 544.53L384.584 633.777L420.481 668.7L411.507 725.61L508.939 594.974L392.276 505.728L357.662 470.805L366.636 413.894L267.922 544.53Z" fill="#325239"/>
<path d="M456.363 553.583L598.666 518.661L647.382 512.194L685.843 554.877L644.818 397.079L502.516 433.294L453.799 439.762L416.621 397.079L456.363 553.583Z" fill="#B8D57E"/>
<path d="M580.743 411.312L642.28 278.089L669.202 235.406L725.61 231.526L576.897 165.561L515.361 300.078L489.721 342.761L433.312 346.641L580.743 411.312Z" fill="#B5D27D"/>
<path d="M547.419 225.057L482.037 93.1272L465.371 46.5637L497.421 0.000268382L353.836 75.0193L419.218 206.949L435.884 254.806L403.834 301.369L547.419 225.057Z" fill="#325239"/>
<path d="M382.055 134.517L238.47 104.768L191.036 87.954L175.652 33.6299L143.602 194.015L287.186 223.764L334.621 240.578L350.005 294.902L382.055 134.517Z" fill="#B8D57E"/>
</g>
</svg>
