<svg width="250" height="753" viewBox="0 0 393 753" fill="none" xmlns="http://www.w3.org/2000/svg">
<g opacity="0.2">
<path d="M176.903 216.855L78.9183 98.4493L52.0733 54.5463L73.5494 0L-56.6484 109.093L41.3355 226.167L68.1805 270.07L46.7044 324.617L176.903 216.855Z" fill="#325239"/>
<path d="M-33.8398 602.662L104.412 666.521L148.706 694.46L152.733 752.997L221.187 598.671L81.5936 534.812L37.2996 508.204L33.2726 449.667L-33.8398 602.662Z" fill="#B5D27D"/>
<path d="M159.446 568.086L296.356 500.236L344.677 482.941L392.998 516.201L315.147 367.196L178.238 435.047L128.575 452.342L80.2539 419.082L159.446 568.086Z" fill="#325239"/>
<path d="M253.404 396.472L284.276 247.468L301.725 198.243L358.099 182.278L191.66 149.018L160.789 298.023L143.339 347.248L86.9648 363.212L253.404 396.472Z" fill="#B8D57E"/>
</g>
</svg>
