<svg width="20" height="33" viewBox="0 0 27 33" fill="none" xmlns="http://www.w3.org/2000/svg">
<path d="M22.0273 17.3173C21.9939 13.3226 25.3032 11.3755 25.4573 11.2885C23.5815 8.55847 20.6742 8.18376 19.6492 8.15699C17.2041 7.90276 14.8393 9.61571 13.5933 9.61571C12.3271 9.61571 10.4112 8.18376 8.34121 8.22394C5.68165 8.26405 3.19631 9.80307 1.83641 12.1851C-0.977201 17.0496 1.11963 24.1958 3.81934 28.1302C5.1658 30.0573 6.74014 32.2052 8.80346 32.1315C10.8198 32.0512 11.5768 30.8468 14.0086 30.8468C16.4203 30.8468 17.1303 32.1315 19.2339 32.0847C21.3977 32.0512 22.7643 30.1509 24.0639 28.2105C25.6248 26.0024 26.2478 23.8278 26.2746 23.7207C26.221 23.6872 22.0676 22.1015 22.0273 17.3173ZM18.0548 5.56751C19.1401 4.20921 19.8836 2.36915 19.676 0.495605C18.1084 0.562482 16.1389 1.57955 15.0134 2.90444C14.0153 4.07539 13.1176 5.98904 13.3521 7.78899C15.1072 7.91611 16.9227 6.89904 18.0548 5.56751Z" fill="#131313"/>
</svg>
