<svg width="253" height="214" viewBox="0 0 253 214" fill="none" xmlns="http://www.w3.org/2000/svg">
<path d="M196.007 19.0522C203.732 66.4436 196.342 115.017 155.853 153.332C119.307 187.916 66.1391 197.535 36.0405 152.153C21.7922 130.671 23.0138 97.6503 48.7016 81.6596C77.3198 63.8447 101.176 96.5923 102.026 115.723C104.012 160.406 62.2013 205.322 0.810501 210.96C-71.8904 217.636 -68.8855 158 -68.4202 158.146" stroke="#B8D57E" stroke-width="5" stroke-miterlimit="1.5" stroke-linecap="round" stroke-linejoin="round"/>
<path d="M250.24 50.455C243.7 49.4264 238.415 46.3685 232.944 43.5318C214.979 34.2187 199.386 19.6359 194.336 2.71143C192.296 21.4814 181.666 45.3053 159.277 54.0773" stroke="#B8D57E" stroke-width="5" stroke-miterlimit="1.5" stroke-linecap="round" stroke-linejoin="round"/>
</svg>
