<svg width="229" height="93" viewBox="0 0 229 93" fill="none" xmlns="http://www.w3.org/2000/svg">
<path d="M175.063 15.0963C139.483 -2.41721 71.0674 0.545731 35.9494 15.8709C19.9558 22.8505 -9.53601 43.0741 8.40988 62.1677C11.5751 65.5355 15.4225 68.2715 19.4031 70.6389C63.2119 96.6926 124.314 94.0393 171.33 78.45C178.342 76.125 185.242 73.3649 191.59 69.6136C196.338 66.808 200.928 63.3305 204.626 59.2723C215.449 47.392 212.622 35.4359 200.977 25.364C187.476 13.6863 169.013 10.0674 151.592 8.08555C136.359 6.35257 121.144 6.01979 105.839 6.72707C77.1345 8.05334 44.0547 10.1637 19.9803 26.1292C9.46527 33.1027 -1.8318 48.0039 7.1815 60.0644C16.9486 73.1331 39.9782 77.3649 55.4681 80.1226C97.2552 87.5625 163.374 83.8734 201.437 64.3501C205.541 62.2447 209.699 60.2827 213.371 57.5141C216.272 55.3265 219.05 52.8321 221.46 50.1326C238.537 31.0015 200.43 18.9727 186.991 16.907C144.712 10.4085 82.138 1.03057 43.2017 18.3177" stroke="#B8D57E" stroke-width="5" stroke-miterlimit="1.5" stroke-linecap="round" stroke-linejoin="round"/>
</svg>
