<svg width="78" height="13" viewBox="0 0 78 13" fill="none" xmlns="http://www.w3.org/2000/svg">
<path d="M53.7848 11.5401C45.1129 8.25917 35.4323 10.0394 26.6582 10.3407C24.1352 10.4275 21.5539 11.0057 19.0335 10.7581C18.7047 10.7259 17.2704 10.6053 17.0014 9.96049C16.9663 9.87657 18.0847 9.5457 18.628 9.40417C19.6845 9.12896 20.7406 8.92591 21.7962 8.63526C24.5715 7.87156 27.3953 7.49896 30.1949 7.15569C37.3814 6.27525 50.2376 3.56198 57.2613 7.3883C57.6093 7.57787 56.5334 7.35569 56.1695 7.33808C55.5715 7.30939 54.9738 7.26786 54.3757 7.2346C52.425 7.12656 50.4577 6.93438 48.5067 6.9646C42.2194 7.06134 35.9099 6.59655 29.6241 7.01286C27.7327 7.13829 25.8474 7.39874 23.9551 7.49939C22.8591 7.55765 22.9082 7.607 21.7754 7.53896C21.2843 7.50939 19.9224 7.77091 20.3108 7.23808C20.995 6.29938 23.1333 6.53417 23.9603 6.34265C27.7364 5.46916 31.5032 4.32849 35.2986 3.71566C45.0303 2.14435 54.9375 2.14065 64.6914 2.79805C68.6815 3.06696 72.7129 2.02675 76.686 2.86719C67.0457 0.663916 57.0252 0.976741 47.332 1.04044C36.4184 1.11218 25.517 1.11696 14.6032 1.52392C10.1226 1.69088 5.73246 3.20084 1.23828 3.09062" stroke="#B8D57E" stroke-miterlimit="1.5" stroke-linecap="round" stroke-linejoin="round"/>
</svg>
